<svg width="46" height="46" viewBox="0 0 46 46" fill="none" xmlns="http://www.w3.org/2000/svg">
<path d="M27.7916 5.75V33.5417" stroke="black" stroke-width="4" stroke-linecap="round" stroke-linejoin="round"/>
<path d="M14.375 34.5384C14.375 33.2574 14.8839 32.0288 15.7897 31.123C16.6955 30.2172 17.924 29.7084 19.205 29.7084H27.7917V35.42C27.7917 36.701 27.2828 37.9296 26.377 38.8354C25.4712 39.7412 24.2427 40.25 22.9617 40.25H19.205C17.924 40.25 16.6955 39.7412 15.7897 38.8354C14.8839 37.9296 14.375 36.701 14.375 35.42V34.5384Z" stroke="black" stroke-width="4" stroke-linejoin="round"/>
<path d="M27.7916 13.4799L40.1378 16.4086V8.63746L27.7916 5.75V13.4799Z" stroke="black" stroke-width="4" stroke-linecap="round" stroke-linejoin="round"/>
<path d="M5.75 23H15.3333M5.75 7.66663H19.1667H5.75ZM5.75 15.3333H19.1667H5.75Z" stroke="black" stroke-width="4" stroke-linecap="round" stroke-linejoin="round"/>
</svg>
